<mxfile host="app.diagrams.net" modified="2023-02-27T07:40:44.636Z" agent="5.0 (Windows NT 10.0; Win64; x64) AppleWebKit/537.36 (KHTML, like Gecko) Chrome/110.0.0.0 Safari/537.36 Edg/110.0.1587.56" etag="UXFJS6PXDSa6H0Mt1ACV" version="20.8.23" type="github">
  <diagram name="第 1 页" id="TEQi4ShTQILTbkTl-TjT">
    <mxGraphModel dx="1434" dy="796" grid="1" gridSize="10" guides="1" tooltips="1" connect="1" arrows="1" fold="1" page="1" pageScale="1" pageWidth="827" pageHeight="1169" math="0" shadow="0">
      <root>
        <mxCell id="0" />
        <mxCell id="1" parent="0" />
        <mxCell id="B8rUQYM5JkH_zZGNKql9-2" value="&lt;font style=&quot;font-size: 20px;&quot;&gt;⇕&lt;/font&gt;" style="text;whiteSpace=wrap;html=1;" vertex="1" parent="1">
          <mxGeometry x="60" y="110" width="20" height="30" as="geometry" />
        </mxCell>
        <mxCell id="B8rUQYM5JkH_zZGNKql9-3" value="⇑" style="text;whiteSpace=wrap;html=1;fontSize=20;" vertex="1" parent="1">
          <mxGeometry x="160" y="130" width="50" height="50" as="geometry" />
        </mxCell>
        <mxCell id="B8rUQYM5JkH_zZGNKql9-4" value="&lt;font style=&quot;font-size: 22px;&quot;&gt;⇓&lt;/font&gt;" style="text;whiteSpace=wrap;html=1;fontSize=20;" vertex="1" parent="1">
          <mxGeometry x="40" y="400" width="20" height="40" as="geometry" />
        </mxCell>
        <mxCell id="B8rUQYM5JkH_zZGNKql9-6" value="&lt;font style=&quot;font-size: 23px;&quot;&gt;⇕&lt;/font&gt;" style="text;whiteSpace=wrap;html=1;" vertex="1" parent="1">
          <mxGeometry x="40" y="280" width="20" height="40" as="geometry" />
        </mxCell>
        <mxCell id="B8rUQYM5JkH_zZGNKql9-7" value="&lt;font style=&quot;font-size: 18px;&quot;&gt;(W0);&lt;/font&gt;" style="text;html=1;strokeColor=none;fillColor=none;align=center;verticalAlign=middle;whiteSpace=wrap;rounded=0;fontSize=20;" vertex="1" parent="1">
          <mxGeometry x="50" y="280" width="60" height="40" as="geometry" />
        </mxCell>
        <mxCell id="B8rUQYM5JkH_zZGNKql9-8" value="&lt;font style=&quot;font-size: 22px;&quot;&gt;⇑&lt;/font&gt;" style="text;whiteSpace=wrap;html=1;fontSize=20;" vertex="1" parent="1">
          <mxGeometry x="100" y="280" width="20" height="40" as="geometry" />
        </mxCell>
        <mxCell id="B8rUQYM5JkH_zZGNKql9-9" value="(R0,&amp;lt;0;1,0,0&amp;gt;W1&amp;lt;0;1,1,0&amp;gt;);" style="text;html=1;strokeColor=none;fillColor=none;align=center;verticalAlign=middle;whiteSpace=wrap;rounded=0;fontSize=18;" vertex="1" parent="1">
          <mxGeometry x="120" y="280" width="230" height="40" as="geometry" />
        </mxCell>
        <mxCell id="B8rUQYM5JkH_zZGNKql9-10" value="⇓" style="text;whiteSpace=wrap;html=1;fontSize=20;" vertex="1" parent="1">
          <mxGeometry x="230" y="120" width="20" height="30" as="geometry" />
        </mxCell>
        <mxCell id="B8rUQYM5JkH_zZGNKql9-11" value="(R0,&amp;lt;0;0,0,1&amp;gt;W1&amp;lt;0,0,1,1&amp;gt;);" style="text;html=1;strokeColor=none;fillColor=none;align=center;verticalAlign=middle;whiteSpace=wrap;rounded=0;fontSize=18;" vertex="1" parent="1">
          <mxGeometry x="50" y="400" width="240" height="40" as="geometry" />
        </mxCell>
        <mxCell id="B8rUQYM5JkH_zZGNKql9-12" value="&lt;font style=&quot;font-size: 22px;&quot;&gt;⇑&lt;/font&gt;" style="text;whiteSpace=wrap;html=1;fontSize=20;" vertex="1" parent="1">
          <mxGeometry x="350" y="280" width="20" height="40" as="geometry" />
        </mxCell>
        <mxCell id="B8rUQYM5JkH_zZGNKql9-13" value="(R1,&amp;lt;1;0,1,1&amp;gt;W0&amp;lt;1;0,0,1&amp;gt;);" style="text;html=1;strokeColor=none;fillColor=none;align=center;verticalAlign=middle;whiteSpace=wrap;rounded=0;fontSize=18;" vertex="1" parent="1">
          <mxGeometry x="370" y="280" width="230" height="40" as="geometry" />
        </mxCell>
        <mxCell id="B8rUQYM5JkH_zZGNKql9-14" value="&lt;font style=&quot;font-size: 22px;&quot;&gt;⇓&lt;/font&gt;" style="text;whiteSpace=wrap;html=1;fontSize=20;" vertex="1" parent="1">
          <mxGeometry x="280" y="400" width="20" height="40" as="geometry" />
        </mxCell>
        <mxCell id="B8rUQYM5JkH_zZGNKql9-15" value="(R0,&amp;lt;0;0,0,1&amp;gt;W1&amp;lt;0;0,1,1&amp;gt;);" style="text;html=1;strokeColor=none;fillColor=none;align=center;verticalAlign=middle;whiteSpace=wrap;rounded=0;fontSize=18;" vertex="1" parent="1">
          <mxGeometry x="299" y="400" width="230" height="40" as="geometry" />
        </mxCell>
        <mxCell id="B8rUQYM5JkH_zZGNKql9-17" value="&lt;font style=&quot;font-size: 22px;&quot;&gt;⇕&lt;/font&gt;" style="text;whiteSpace=wrap;html=1;" vertex="1" parent="1">
          <mxGeometry x="530" y="400" width="20" height="40" as="geometry" />
        </mxCell>
        <mxCell id="B8rUQYM5JkH_zZGNKql9-18" value="&lt;font style=&quot;font-size: 18px;&quot;&gt;(R0);&lt;/font&gt;" style="text;html=1;strokeColor=none;fillColor=none;align=center;verticalAlign=middle;whiteSpace=wrap;rounded=0;fontSize=20;" vertex="1" parent="1">
          <mxGeometry x="540" y="400" width="60" height="40" as="geometry" />
        </mxCell>
        <mxCell id="B8rUQYM5JkH_zZGNKql9-21" value="" style="curved=1;endArrow=classic;html=1;rounded=0;fontSize=22;" edge="1" parent="1" source="B8rUQYM5JkH_zZGNKql9-7" target="B8rUQYM5JkH_zZGNKql9-9">
          <mxGeometry width="50" height="50" relative="1" as="geometry">
            <mxPoint x="240" y="260" as="sourcePoint" />
            <mxPoint x="290" y="210" as="targetPoint" />
            <Array as="points">
              <mxPoint x="100" y="260" />
              <mxPoint x="110" y="250" />
              <mxPoint x="120" y="250" />
              <mxPoint x="140" y="250" />
              <mxPoint x="160" y="260" />
              <mxPoint x="170" y="280" />
            </Array>
          </mxGeometry>
        </mxCell>
        <mxCell id="B8rUQYM5JkH_zZGNKql9-23" value="" style="curved=1;endArrow=classic;html=1;rounded=0;fontSize=22;exitX=0.539;exitY=-0.05;exitDx=0;exitDy=0;exitPerimeter=0;entryX=0.287;entryY=-0.1;entryDx=0;entryDy=0;entryPerimeter=0;" edge="1" parent="1" source="B8rUQYM5JkH_zZGNKql9-9" target="B8rUQYM5JkH_zZGNKql9-9">
          <mxGeometry width="50" height="50" relative="1" as="geometry">
            <mxPoint x="250" y="220" as="sourcePoint" />
            <mxPoint x="200" y="270" as="targetPoint" />
            <Array as="points">
              <mxPoint x="220" y="250" />
              <mxPoint x="180" y="260" />
            </Array>
          </mxGeometry>
        </mxCell>
        <mxCell id="B8rUQYM5JkH_zZGNKql9-24" value="" style="curved=1;endArrow=classic;html=1;rounded=0;fontSize=22;entryX=0.783;entryY=-0.1;entryDx=0;entryDy=0;entryPerimeter=0;" edge="1" parent="1" target="B8rUQYM5JkH_zZGNKql9-9">
          <mxGeometry width="50" height="50" relative="1" as="geometry">
            <mxPoint x="250" y="280" as="sourcePoint" />
            <mxPoint x="300" y="230" as="targetPoint" />
            <Array as="points">
              <mxPoint x="250" y="230" />
            </Array>
          </mxGeometry>
        </mxCell>
        <mxCell id="B8rUQYM5JkH_zZGNKql9-25" value="" style="curved=1;endArrow=classic;html=1;rounded=0;fontSize=22;exitX=0.835;exitY=0.025;exitDx=0;exitDy=0;exitPerimeter=0;entryX=0.196;entryY=-0.05;entryDx=0;entryDy=0;entryPerimeter=0;" edge="1" parent="1" source="B8rUQYM5JkH_zZGNKql9-9" target="B8rUQYM5JkH_zZGNKql9-13">
          <mxGeometry width="50" height="50" relative="1" as="geometry">
            <mxPoint x="440" y="190" as="sourcePoint" />
            <mxPoint x="490" y="140" as="targetPoint" />
            <Array as="points">
              <mxPoint x="360" y="240" />
              <mxPoint x="400" y="240" />
            </Array>
          </mxGeometry>
        </mxCell>
      </root>
    </mxGraphModel>
  </diagram>
</mxfile>
